<?xml version="1.0" standalone="no"?>
<!DOCTYPE svg PUBLIC "-//W3C//DTD SVG 20010904//EN"
 "http://www.w3.org/TR/2001/REC-SVG-20010904/DTD/svg10.dtd">
<svg version="1.0" xmlns="http://www.w3.org/2000/svg"
 width="1200.000000pt" height="1200.000000pt" viewBox="0 0 1200.000000 1200.000000"
 preserveAspectRatio="xMidYMid meet">
<metadata>
Created by potrace 1.11, written by Peter Selinger 2001-2013
</metadata>
<g transform="translate(0.000000,1200.000000) scale(0.100000,-0.100000)"
fill="#000000" stroke="none">
<path d="M0 11840 c0 -97 4 -160 10 -160 5 0 17 15 26 33 23 45 52 70 75 64
10 -3 22 -1 25 4 8 14 -15 39 -37 39 -11 0 -19 5 -19 10 0 6 9 10 20 10 32 0
23 18 -20 40 -37 19 -53 40 -30 40 6 0 10 -4 10 -9 0 -5 11 -12 25 -15 14 -4
32 -17 41 -31 14 -21 24 -25 64 -25 30 0 50 -5 53 -12 4 -10 7 -10 18 0 11 10
10 12 -4 12 -9 0 -17 5 -17 11 0 6 -18 9 -45 8 -40 -3 -50 1 -78 29 -30 30
-30 32 -9 32 19 0 22 5 22 40 l0 40 -65 0 -65 0 0 -160z"/>
<path d="M1087 11980 c6 -22 32 -26 79 -11 57 18 143 21 159 4 24 -24 7 -35
-44 -29 -25 4 -79 3 -118 -2 -41 -5 -74 -4 -76 1 -1 4 -16 3 -32 -3 -16 -6
-46 -10 -67 -9 -20 2 -40 0 -44 -4 -4 -4 6 -7 22 -7 17 0 40 -10 56 -25 20
-19 34 -24 52 -19 14 3 34 3 45 -1 23 -7 28 -31 9 -38 -30 -10 152 -18 184 -8
18 6 72 13 121 17 48 3 87 10 87 16 0 7 -28 8 -80 3 -56 -5 -80 -4 -80 4 0 6
-15 11 -32 11 -42 0 -79 10 -73 20 2 4 27 5 55 2 33 -3 50 -1 50 7 0 6 5 11
11 11 13 0 39 25 39 39 0 20 28 26 150 32 86 3 30 6 -177 7 -296 2 -301 1
-296 -18z m37 -75 c-27 -20 -51 -20 -34 0 7 8 22 15 33 15 20 0 20 0 1 -15z"/>
<path d="M2438 11993 c28 -3 42 -9 42 -19 0 -8 -10 -14 -22 -14 -13 0 -18 -4
-12 -8 20 -18 102 -37 157 -37 52 0 57 -2 57 -22 0 -12 8 -27 18 -32 16 -10
16 -10 -1 -11 -11 0 -15 -5 -11 -11 4 -6 20 -9 39 -6 18 3 52 1 74 -4 32 -7
47 -6 62 5 16 11 18 16 7 22 -9 6 -6 10 12 15 23 6 22 7 -10 9 l-35 2 40 9
c65 13 105 11 105 -6 0 -16 26 -32 80 -52 42 -15 80 -17 80 -3 0 6 -4 10 -10
10 -5 0 -10 11 -10 25 0 18 -5 25 -20 25 -15 0 -20 -7 -20 -25 0 -14 -4 -25
-10 -25 -5 0 -10 18 -10 40 0 29 -4 40 -15 40 -11 0 -15 11 -15 40 l0 40 -307
-2 c-170 -1 -289 -3 -265 -5z m345 -30 c-13 -2 -33 -2 -45 0 -13 2 -3 4 22 4
25 0 35 -2 23 -4z m1 -69 c29 -11 16 -24 -24 -24 -29 0 -40 4 -40 15 0 16 35
20 64 9z"/>
<path d="M2748 11883 c7 -3 16 -2 19 1 4 3 -2 6 -13 5 -11 0 -14 -3 -6 -6z"/>
<path d="M3040 11964 c0 -37 18 -64 43 -64 9 0 18 6 21 13 5 10 7 10 12 0 3
-7 16 -13 30 -13 42 0 164 24 164 32 0 4 -25 8 -55 8 -54 0 -55 0 -55 30 l0
30 -80 0 -80 0 0 -36z"/>
<path d="M3310 11990 c0 -5 7 -10 15 -10 10 0 15 -10 15 -28 0 -26 3 -28 50
-30 l50 -2 0 40 c0 38 -2 40 -30 40 -20 0 -30 -5 -30 -15 0 -8 7 -15 15 -15 8
0 15 -9 15 -20 0 -11 -7 -20 -15 -20 -8 0 -15 9 -15 19 0 11 -9 23 -20 26 -11
3 -20 11 -20 16 0 5 -7 9 -15 9 -8 0 -15 -4 -15 -10z"/>
<path d="M3490 11963 l0 -38 70 0 70 0 0 38 c0 26 -4 37 -15 37 -8 0 -15 -7
-15 -15 0 -11 -11 -15 -40 -15 -29 0 -40 4 -40 15 0 8 -7 15 -15 15 -11 0 -15
-11 -15 -37z"/>
<path d="M3760 11980 c0 -17 -7 -20 -40 -20 -38 0 -40 -2 -40 -30 0 -31 8 -35
60 -31 20 1 22 -1 10 -9 -10 -6 -11 -10 -2 -10 6 0 12 -4 12 -10 0 -5 -18 -10
-40 -10 -22 0 -40 -4 -40 -10 0 -21 69 -10 96 15 28 26 64 34 64 14 0 -7 9 -9
21 -6 13 4 28 -1 38 -10 15 -15 16 -15 19 0 3 13 14 17 43 17 32 0 39 -3 39
-20 0 -14 -7 -20 -22 -20 -20 0 -20 -1 -5 -18 10 -10 17 -28 17 -40 0 -15 6
-22 20 -22 11 0 20 7 20 15 0 8 5 15 10 15 6 0 13 -7 16 -15 4 -8 13 -15 21
-15 8 0 28 -11 45 -25 22 -18 41 -25 74 -25 32 0 44 -4 44 -15 0 -8 -6 -15
-14 -15 -10 0 -12 -7 -8 -22 5 -20 3 -21 -11 -10 -14 12 -16 10 -15 -17 1 -18
5 -28 11 -24 6 4 8 0 4 -10 -4 -10 0 -17 11 -20 9 -3 -1 -6 -23 -7 l-40 -3 50
-7 c28 -5 79 -9 115 -11 37 -1 51 -4 33 -6 -18 -2 -33 -8 -33 -14 0 -5 -30 -9
-67 -9 -48 0 -64 -3 -53 -10 12 -8 9 -10 -12 -10 -14 0 -28 -6 -31 -12 -2 -9
-26 -12 -80 -11 l-77 3 0 -35 0 -35 -127 0 c-120 0 -128 -1 -160 -26 -25 -19
-33 -22 -33 -10 0 12 -10 16 -39 16 -23 0 -41 5 -43 12 -6 17 -78 -37 -78 -58
0 -10 -12 -14 -40 -14 -29 0 -40 4 -40 15 0 12 -13 15 -55 15 l-55 0 0 -40 c0
-29 -4 -40 -15 -40 -12 0 -15 -16 -15 -80 l0 -80 -75 0 -75 0 0 40 c0 28 -4
40 -14 40 -18 0 -27 -26 -20 -56 6 -23 4 -24 -45 -24 -44 0 -51 3 -51 20 0 11
-7 20 -15 20 -10 0 -15 -10 -15 -30 0 -25 4 -30 25 -30 41 0 29 -17 -17 -25
-36 -6 -39 -8 -23 -15 11 -5 30 -9 43 -9 15 -1 22 -7 22 -21 0 -18 7 -20 79
-20 44 0 81 4 83 9 2 5 42 13 91 17 l87 7 0 -27 0 -26 -90 0 c-73 0 -90 -3
-90 -15 0 -12 16 -15 80 -15 47 0 80 -4 80 -10 0 -5 -18 -10 -40 -10 -22 0
-40 -4 -40 -10 0 -6 -33 -10 -80 -10 -73 0 -80 -2 -80 -20 0 -18 -7 -20 -66
-20 -46 0 -70 -5 -81 -16 -13 -13 -30 -15 -95 -9 -54 5 -78 4 -78 -4 0 -14
-37 -15 -42 -1 -2 6 -29 13 -61 15 -46 4 -57 2 -57 -11 0 -8 5 -12 10 -9 19
12 110 -6 110 -20 0 -15 -75 -30 -106 -22 -11 3 0 5 24 6 23 0 42 6 42 11 0 6
-10 10 -22 9 -55 -5 -78 1 -78 20 0 24 19 31 86 31 41 0 54 4 54 15 0 12 -13
15 -57 15 -32 0 -64 4 -72 9 -23 15 11 41 53 41 20 0 36 4 36 9 0 6 17 12 38
14 32 3 31 4 -8 3 -43 -1 -110 27 -110 46 0 4 18 8 40 8 22 0 40 4 40 9 0 5
-18 11 -40 15 -22 3 -40 10 -40 15 0 4 18 14 40 21 22 7 40 17 40 22 0 5 10
13 23 18 l22 9 -22 7 c-13 3 -23 13 -23 20 0 8 10 14 23 15 21 1 21 1 -2 8
-23 6 -21 8 17 20 23 8 42 17 42 21 0 4 -19 13 -42 21 l-43 14 30 6 30 6 -27
7 c-16 5 -28 12 -28 18 0 5 8 7 18 4 9 -2 28 -8 41 -11 19 -6 23 -4 18 9 -12
30 3 46 47 48 l41 1 -38 4 c-20 2 -74 -3 -120 -11 -45 -9 -112 -17 -148 -18
l-65 -3 11 -50 c7 -27 9 -59 5 -70 -6 -16 -9 -13 -15 18 -7 34 -9 36 -21 20
-7 -10 -14 -26 -14 -35 0 -15 -10 -18 -65 -18 -60 0 -67 -2 -100 -34 -40 -40
-43 -46 -15 -46 17 0 20 -7 20 -40 l0 -40 -40 0 -40 0 0 -40 0 -40 -40 0 c-22
0 -40 -4 -40 -10 0 -6 33 -10 80 -10 47 0 80 4 80 10 0 6 9 10 20 10 17 0 20
-7 20 -40 l0 -40 -79 0 c-127 0 -200 10 -203 29 -3 13 -8 11 -28 -9 -24 -24
-30 -25 -157 -25 -106 0 -133 3 -133 14 0 9 -7 11 -22 7 -13 -3 -32 -6 -43 -7
-14 -1 -10 -4 10 -9 18 -5 -28 -8 -117 -9 -91 -1 -148 -5 -148 -11 0 -5 -18
-10 -40 -10 -29 0 -40 4 -40 15 0 16 -16 21 -22 7 -1 -5 -15 -12 -30 -16 -21
-5 -28 -3 -28 9 0 15 32 21 94 16 23 -2 28 1 22 14 -3 9 -6 19 -6 21 0 2 -15
4 -33 4 -22 0 -36 7 -45 21 -13 20 -12 21 16 17 29 -4 29 -4 26 41 -2 25 -1
38 2 29 3 -11 16 -18 32 -19 l27 -1 -27 -11 c-16 -6 -28 -14 -28 -19 0 -13 19
-9 47 9 27 18 66 25 57 11 -4 -5 -11 -7 -18 -5 -6 3 -17 -2 -24 -9 -10 -12
-10 -14 3 -14 8 0 15 -7 15 -16 0 -11 5 -14 16 -10 9 3 18 6 20 6 2 0 4 21 4
46 0 41 -2 45 -15 34 -9 -7 -19 -9 -23 -5 -4 4 -1 10 6 12 7 3 12 22 12 44 0
38 -1 39 -36 39 -19 0 -44 5 -54 10 -42 23 -82 -40 -45 -70 13 -11 12 -15 -10
-34 -14 -12 -25 -31 -25 -43 0 -12 -4 -24 -8 -27 -4 -2 -6 11 -4 31 4 33 3 34
-16 24 -14 -7 -21 -8 -24 0 -2 5 -13 1 -25 -10 l-22 -21 -21 27 c-14 18 -17
29 -9 34 8 4 5 13 -10 28 -27 27 -34 26 -68 -4 l-28 -24 31 -1 c28 0 33 -4 40
-37 5 -21 7 -56 3 -78 l-6 -40 -2 38 c-1 36 -2 37 -40 37 -22 0 -41 -5 -44
-12 -4 -10 -7 -10 -18 0 -11 10 -10 12 4 12 10 0 17 8 17 20 0 17 -7 20 -40
20 -33 0 -40 -3 -40 -20 0 -14 -7 -20 -24 -20 -38 0 -56 -10 -56 -32 0 -25 27
-47 58 -48 28 0 29 26 0 36 -19 6 -20 7 -4 16 10 5 28 7 41 4 18 -5 22 -11 18
-27 -3 -12 -1 -24 5 -28 6 -3 8 -12 4 -18 -11 -17 -122 -5 -122 13 0 9 -10 14
-27 13 -28 -1 -28 -1 -3 -8 l24 -7 -34 -24 c-22 -16 -35 -20 -38 -12 -2 7 -21
12 -43 12 -28 0 -39 4 -39 15 0 11 12 15 43 17 l42 1 -39 4 c-21 3 -43 0 -48
-5 -15 -15 2 -82 21 -83 13 0 14 -2 1 -6 -8 -3 -18 -10 -21 -15 -3 -5 -13 -2
-22 6 -8 9 -20 16 -25 16 -6 0 -12 6 -15 13 -3 8 -11 3 -25 -13 -11 -14 -36
-35 -56 -45 -20 -11 -36 -23 -36 -27 0 -5 -11 -8 -24 -8 -14 0 -36 -4 -51 -10
-14 -5 -52 -7 -85 -3 -50 5 -60 9 -60 24 0 15 8 19 40 19 22 0 40 5 40 10 0 6
-47 10 -120 10 -100 0 -120 3 -120 15 0 10 10 15 28 15 33 0 47 28 56 109 3
30 11 58 18 63 10 6 8 8 -4 8 -11 0 -18 -8 -18 -20 0 -17 -7 -20 -40 -20 -29
0 -40 4 -40 15 0 11 -12 15 -48 15 -42 0 -50 3 -60 25 -10 22 -14 24 -32 13
l-20 -13 0 -5497 0 -5498 6000 0 6000 0 0 6000 0 6000 -1996 0 c-1327 0 -1993
-3 -1989 -10 3 -5 12 -10 19 -10 22 0 46 -35 46 -68 l0 -32 -112 6 c-62 3
-124 10 -138 14 -14 5 -36 8 -50 7 -14 -1 -25 3 -25 10 0 24 -13 27 -127 32
-23 1 -28 6 -28 26 0 14 -4 25 -10 25 -5 0 -10 -9 -10 -20 0 -11 -7 -20 -15
-20 -8 0 -15 9 -15 20 0 19 -7 20 -180 20 -99 0 -180 -4 -180 -8 0 -5 8 -9 18
-9 94 1 121 -15 88 -52 -9 -10 -16 -25 -16 -34 0 -13 -7 -15 -27 -12 -16 3
-37 7 -48 8 -29 4 -62 29 -67 52 -2 11 -11 19 -19 17 -9 -1 -24 7 -34 18 -21
24 -45 26 -45 5 0 -8 -5 -15 -10 -15 -6 0 -13 7 -16 15 -13 32 -34 16 -34 -25
0 -22 -4 -40 -10 -40 -5 0 -10 7 -10 15 0 21 -18 19 -32 -4 -12 -19 -12 -19
-39 3 -25 21 -30 22 -95 11 -59 -9 -69 -14 -72 -33 -3 -20 -8 -22 -68 -20 -45
1 -64 5 -64 15 0 7 -7 13 -15 13 -8 0 -15 -4 -15 -10 0 -5 -10 -10 -22 -11
-22 0 -22 -1 -3 -9 17 -7 14 -9 -14 -9 -43 -1 -57 -21 -53 -76 l4 -45 60 0
c51 0 59 -2 54 -16 -3 -9 -6 -27 -6 -40 0 -13 -4 -24 -10 -24 -5 0 -10 10 -10
23 0 18 -5 23 -26 22 -14 0 -32 -9 -40 -19 -13 -19 -14 -19 -14 7 0 25 -3 27
-40 27 -38 0 -40 2 -40 30 0 27 -3 30 -30 30 -23 0 -30 -5 -30 -19 0 -22 -29
-36 -43 -22 -7 7 -5 12 6 17 21 8 22 24 2 24 -33 0 -65 23 -66 49 -1 45 -42
68 -135 73 -55 3 -92 11 -114 24 -39 22 -50 44 -23 45 10 0 13 3 6 5 -6 3 -27
-2 -47 -10 -20 -8 -34 -11 -31 -6 4 6 -11 10 -34 10 -43 0 -50 -13 -21 -38 11
-10 11 -12 1 -6 -8 4 -12 3 -8 -3 8 -13 67 -15 67 -2 0 22 16 6 18 -18 2 -21
-1 -24 -10 -15 -17 17 -33 15 -18 -3 8 -9 22 -12 41 -8 18 3 29 1 29 -6 0 -6
10 -11 23 -10 21 0 21 1 2 9 -14 6 -4 9 37 9 l57 1 7 -70 c7 -78 21 -92 27
-27 l4 42 1 -42 c2 -36 5 -43 22 -43 11 0 20 -4 20 -10 0 -5 -18 -10 -40 -10
-22 0 -40 -4 -40 -9 0 -5 -16 -9 -35 -8 -40 1 -50 -6 -42 -28 7 -17 62 -21 72
-5 3 6 24 10 46 10 21 0 39 -4 39 -10 0 -5 -18 -10 -40 -10 -33 0 -40 -3 -40
-20 0 -17 7 -20 40 -20 33 0 40 -3 40 -20 0 -11 4 -20 8 -20 13 0 29 -42 24
-62 -2 -10 -7 -18 -12 -18 -5 0 -14 -2 -22 -5 -10 -4 -12 5 -9 41 l3 47 -91
-6 c-50 -4 -131 -10 -180 -13 -49 -4 -99 -4 -112 -1 -22 6 -24 11 -21 52 l4
45 -36 0 c-28 0 -34 3 -29 16 8 21 -17 64 -38 64 -10 0 -22 -13 -29 -32 l-12
-33 -16 33 c-12 25 -22 32 -44 32 -15 0 -28 -4 -28 -10 0 -5 -18 -10 -40 -10
-36 0 -40 3 -40 25 0 17 6 25 17 25 9 0 14 2 11 5 -10 11 -69 -8 -64 -20 2 -7
-5 -15 -16 -19 -18 -4 -19 -7 -8 -20 10 -13 10 -16 -4 -16 -10 0 -14 -5 -10
-11 4 -8 1 -8 -13 -1 -13 8 -31 7 -59 0 -21 -6 -51 -11 -66 -12 -22 -1 -26 -5
-24 -26 2 -14 1 -17 -1 -8 -3 11 -13 17 -28 16 -12 -1 -21 -7 -18 -13 5 -14
-55 -8 -74 7 -6 5 -28 6 -47 2 -20 -3 -42 -2 -49 4 -22 18 -112 39 -242 57
-16 2 -83 7 -147 11 -106 6 -118 9 -118 26 0 14 8 18 40 18 22 0 40 5 40 10 0
6 18 10 40 10 22 0 40 -4 40 -10 0 -6 33 -10 79 -10 76 0 79 1 85 25 5 20 13
25 36 25 17 0 30 -4 30 -8 0 -15 124 10 137 27 7 10 8 18 2 22 -6 3 -2 12 7
20 15 12 11 15 -42 20 -45 4 -54 8 -36 14 12 4 22 11 22 15 0 12 -89 40 -127
40 -30 0 -33 -3 -33 -29 0 -28 3 -30 43 -34 41 -3 40 -4 -10 -5 l-52 -2 -4 43
-4 42 -1 -42 -2 -43 -40 0 c-29 0 -40 4 -40 15 0 19 -26 20 -37 1 -4 -7 -27
-16 -50 -20 -41 -6 -43 -5 -43 19 0 23 -4 25 -40 25 -22 0 -40 5 -40 11 0 7
-62 8 -200 3 -182 -6 -200 -6 -200 9 0 15 -15 17 -125 17 -118 0 -125 -1 -125
-20 0 -13 -7 -20 -20 -20 -13 0 -20 7 -20 20 0 11 -7 20 -15 20 -8 0 -15 -9
-15 -20z m3135 -130 c3 -5 1 -10 -4 -10 -6 0 -11 5 -11 10 0 6 2 10 4 10 3 0
8 -4 11 -10z m1305 0 c0 -5 -9 -10 -20 -10 -11 0 -20 5 -20 10 0 6 9 10 20 10
11 0 20 -4 20 -10z m-3613 -6 c-3 -3 -12 -4 -19 -1 -8 3 -5 6 6 6 11 1 17 -2
13 -5z m1933 -44 c0 -12 -28 -25 -36 -17 -9 9 6 27 22 27 8 0 14 -5 14 -10z
m1480 -5 c0 -8 7 -15 16 -15 8 0 12 -4 9 -10 -3 -5 -24 -10 -46 -10 -21 0 -39
5 -39 10 0 6 4 10 10 10 5 0 7 7 4 15 -5 11 1 15 20 15 16 0 26 -6 26 -15z
m80 -44 c0 -5 -9 -7 -20 -4 -11 3 -20 7 -20 9 0 2 9 4 20 4 11 0 20 -4 20 -9z
m190 -1 c0 -5 -7 -10 -15 -10 -8 0 -15 5 -15 10 0 6 7 10 15 10 8 0 15 -4 15
-10z m-1864 -38 c9 -5 8 -11 -2 -20 -8 -7 -14 -8 -14 -2 0 5 -9 10 -20 10 -11
0 -20 5 -20 10 0 12 40 13 56 2z m24 -42 c0 -5 -2 -10 -4 -10 -3 0 -8 5 -11
10 -3 6 -1 10 4 10 6 0 11 -4 11 -10z m235 0 c-3 -5 -10 -10 -16 -10 -5 0 -9
5 -9 10 0 6 7 10 16 10 8 0 12 -4 9 -10z m-2390 -40 c27 -30 12 -34 -15 -5
-13 14 -19 25 -13 25 5 0 18 -9 28 -20z m2155 -5 c0 -16 -6 -25 -15 -25 -9 0
-15 9 -15 25 0 16 6 25 15 25 9 0 15 -9 15 -25z m-1794 -97 c4 -5 -47 -8 -114
-8 -67 0 -122 4 -122 9 0 10 225 9 236 -1z m-268 -35 c-10 -2 -26 -2 -35 0
-10 3 -2 5 17 5 19 0 27 -2 18 -5z m-108 -122 c0 -6 -19 -11 -42 -11 l-43 1
28 24 c25 22 30 23 43 11 8 -8 14 -19 14 -25z m80 4 c0 -9 -9 -15 -25 -15 -16
0 -25 6 -25 15 0 9 9 15 25 15 16 0 25 -6 25 -15z m87 -21 c-3 -3 -12 -4 -19
-1 -8 3 -5 6 6 6 11 1 17 -2 13 -5z m-1787 -238 c0 -3 -4 -8 -10 -11 -5 -3
-10 -1 -10 4 0 6 5 11 10 11 6 0 10 -2 10 -4z m-1400 -141 c0 -8 -4 -15 -10
-15 -5 0 -7 7 -4 15 4 8 8 15 10 15 2 0 4 -7 4 -15z m0 -51 c0 -8 -5 -12 -10
-9 -6 4 -8 11 -5 16 9 14 15 11 15 -7z m1327 -16 c-3 -7 -5 -2 -5 12 0 14 2
19 5 13 2 -7 2 -19 0 -25z m46 12 c3 -11 1 -20 -4 -20 -5 0 -9 2 -9 4 0 2 -3
11 -6 20 -3 9 -2 16 4 16 5 0 12 -9 15 -20z m-133 -5 c0 -8 -4 -15 -9 -15 -13
0 -22 16 -14 24 11 11 23 6 23 -9z m-40 -25 c0 -5 -9 -10 -20 -10 -11 0 -20 5
-20 10 0 6 9 10 20 10 11 0 20 -4 20 -10z m-297 -17 c-13 -2 -33 -2 -45 0 -13
2 -3 4 22 4 25 0 35 -2 23 -4z m-750 -80 c-7 -2 -19 -2 -25 0 -7 3 -2 5 12 5
14 0 19 -2 13 -5z m1487 -3 c0 -5 -4 -10 -10 -10 -5 0 -10 5 -10 10 0 6 5 10
10 10 6 0 10 -4 10 -10z m-1535 -4400 c3 -5 -1 -10 -9 -10 -9 0 -16 5 -16 10
0 6 4 10 9 10 6 0 13 -4 16 -10z m1763 -1512 c7 -7 12 -21 12 -31 0 -16 -4
-18 -22 -12 -13 4 -38 7 -55 6 -23 -1 -33 4 -33 14 0 30 73 48 98 23z"/>
<path d="M5280 11978 c-1 -54 -105 -78 -142 -33 l-17 20 -1 -22 c0 -16 -6 -23
-19 -23 -16 0 -18 -6 -14 -47 4 -47 4 -47 -11 -23 -8 14 -20 34 -25 45 -8 16
-10 7 -10 -37 -1 -44 2 -58 13 -58 8 0 18 5 21 10 10 16 45 12 45 -6 0 -24 94
-16 98 10 2 10 -2 23 -10 28 -9 6 -6 7 10 3 17 -5 22 -2 22 14 0 28 17 35 25
10 4 -12 3 -24 -3 -28 -5 -3 -6 -15 -2 -27 8 -20 9 -20 109 -5 56 9 101 19
101 23 0 5 -7 8 -15 8 -11 0 -15 11 -15 40 0 44 6 49 26 23 13 -17 14 -17 8 2
l-6 20 13 -20 c8 -11 14 -23 14 -28 0 -4 12 -14 27 -21 24 -13 26 -12 22 2 -5
15 -4 15 9 -1 14 -17 15 -16 20 3 3 11 11 20 19 19 10 0 10 -2 1 -6 -7 -2 -13
-12 -13 -20 0 -10 6 -13 16 -9 9 3 21 6 29 6 10 0 9 8 -3 35 -15 32 -19 35
-62 35 -50 0 -76 12 -66 29 5 7 -4 11 -26 11 -22 0 -29 -3 -19 -9 8 -5 9 -11
3 -15 -11 -7 -22 15 -22 45 0 16 -7 19 -44 19 -35 0 -45 -4 -49 -20 -3 -11
-10 -20 -17 -20 -7 0 -14 9 -17 20 -7 27 -23 25 -23 -2z"/>
<path d="M6788 11993 c7 -3 16 -2 19 1 4 3 -2 6 -13 5 -11 0 -14 -3 -6 -6z"/>
<path d="M7967 11980 c3 -11 12 -20 19 -20 8 0 14 9 14 20 0 13 -7 20 -19 20
-14 0 -18 -5 -14 -20z"/>
<path d="M5720 11969 l-45 -6 42 -1 c23 -1 43 -7 45 -14 3 -8 7 -6 11 5 8 22
1 24 -53 16z"/>
<path d="M6000 11970 c0 -6 11 -10 24 -10 13 0 31 -3 40 -6 10 -4 16 -1 16 7
0 9 -14 15 -40 16 -22 2 -40 -2 -40 -7z"/>
<path d="M6910 11951 c0 -7 -5 -9 -12 -5 -7 5 -8 3 -3 -5 5 -9 10 -10 18 -2 6
6 8 14 4 18 -4 3 -7 1 -7 -6z"/>
<path d="M6258 11943 c7 -3 16 -2 19 1 4 3 -2 6 -13 5 -11 0 -14 -3 -6 -6z"/>
<path d="M1540 11913 c0 -5 5 -15 10 -23 9 -13 11 -13 20 0 15 22 12 30 -10
30 -11 0 -20 -3 -20 -7z"/>
<path d="M5660 11905 c0 -8 5 -15 10 -15 6 0 10 7 10 15 0 8 -4 15 -10 15 -5
0 -10 -7 -10 -15z"/>
<path d="M787 11879 c-10 -6 -14 -15 -10 -22 4 -7 8 -18 9 -25 4 -24 14 -26
14 -4 0 12 9 26 20 32 11 6 20 15 20 20 0 13 -30 12 -53 -1z"/>
<path d="M3215 11880 c27 -12 35 -12 35 0 0 6 -12 10 -27 9 -25 0 -26 -1 -8
-9z"/>
<path d="M2582 11868 c15 -5 34 -6 42 -1 10 6 1 9 -27 9 -38 1 -40 0 -15 -8z"/>
<path d="M1026 11848 c3 -4 16 -8 30 -8 13 0 24 4 24 8 0 5 -13 9 -30 9 -16 0
-27 -4 -24 -9z"/>
<path d="M2920 11850 l-45 -7 53 -1 c33 -1 51 2 47 8 -3 6 -7 9 -8 8 -1 0 -22
-4 -47 -8z"/>
<path d="M3920 11826 c0 -10 -13 -16 -37 -19 -25 -2 -20 -3 15 -3 43 1 52 4
52 18 0 10 -7 18 -15 18 -8 0 -15 -6 -15 -14z"/>
<path d="M6410 11800 c0 -29 4 -40 15 -40 11 0 15 11 15 40 0 29 -4 40 -15 40
-11 0 -15 -11 -15 -40z"/>
<path d="M2960 11821 c0 -10 30 -24 37 -17 3 2 -5 9 -16 16 -12 6 -21 7 -21 1z"/>
<path d="M3660 11810 c0 -11 5 -20 10 -20 6 0 10 9 10 20 0 11 -4 20 -10 20
-5 0 -10 -9 -10 -20z"/>
<path d="M5854 11778 c-4 -6 -2 -14 4 -16 7 -2 12 -21 12 -43 0 -35 3 -39 25
-39 14 0 25 -4 25 -10 0 -5 18 -10 40 -10 22 0 40 5 40 10 0 6 -18 10 -40 10
l-40 0 0 40 c0 23 -5 40 -11 40 -8 0 -8 5 1 15 11 13 8 15 -18 15 -17 0 -34
-5 -38 -12z"/>
<path d="M5100 11770 c0 -5 5 -10 10 -10 6 0 10 5 10 10 0 6 -4 10 -10 10 -5
0 -10 -4 -10 -10z"/>
<path d="M240 11760 c0 -5 -18 -10 -40 -10 -48 0 -52 -16 -7 -29 17 -5 24 -10
15 -10 -28 -2 -21 -21 7 -21 17 0 25 5 25 18 0 10 7 28 16 40 14 20 14 22 0
22 -9 0 -16 -4 -16 -10z"/>
<path d="M1458 11753 c12 -2 32 -2 45 0 12 2 2 4 -23 4 -25 0 -35 -2 -22 -4z"/>
<path d="M4878 11753 c7 -3 16 -2 19 1 4 3 -2 6 -13 5 -11 0 -14 -3 -6 -6z"/>
<path d="M5760 11680 l0 -80 40 0 40 0 0 80 0 80 -40 0 -40 0 0 -80z"/>
<path d="M6028 11753 c6 -2 18 -2 25 0 6 3 1 5 -13 5 -14 0 -19 -2 -12 -5z"/>
<path d="M5031 11714 c0 -11 3 -14 6 -6 3 7 2 16 -1 19 -3 4 -6 -2 -5 -13z"/>
<path d="M5702 11710 c0 -14 2 -19 5 -12 2 6 2 18 0 25 -3 6 -5 1 -5 -13z"/>
<path d="M5742 11710 c0 -14 2 -19 5 -12 2 6 2 18 0 25 -3 6 -5 1 -5 -13z"/>
<path d="M173 11673 c9 -2 23 -2 30 0 6 3 -1 5 -18 5 -16 0 -22 -2 -12 -5z"/>
<path d="M3733 11474 c-16 -7 -5 -34 13 -34 8 0 14 9 14 20 0 20 -5 23 -27 14z"/>
<path d="M3460 11400 c0 -29 4 -40 15 -40 11 0 15 11 15 40 0 29 -4 40 -15 40
-11 0 -15 -11 -15 -40z"/>
<path d="M3268 11413 c-43 -11 -4 -33 60 -33 25 0 32 4 32 20 0 17 -6 20 -37
19 -21 -1 -46 -3 -55 -6z"/>
<path d="M2960 11379 c0 -18 2 -19 15 -9 8 7 15 16 15 21 0 5 -7 9 -15 9 -9 0
-15 -9 -15 -21z"/>
<path d="M2480 11330 c0 -5 5 -10 10 -10 6 0 10 5 10 10 0 6 -4 10 -10 10 -5
0 -10 -4 -10 -10z"/>
<path d="M3200 11330 c0 -5 18 -10 40 -10 22 0 40 5 40 10 0 6 -18 10 -40 10
-22 0 -40 -4 -40 -10z"/>
<path d="M3218 11283 c12 -2 32 -2 45 0 12 2 2 4 -23 4 -25 0 -35 -2 -22 -4z"/>
<path d="M80 11235 c0 -8 5 -15 10 -15 6 0 10 7 10 15 0 8 -4 15 -10 15 -5 0
-10 -7 -10 -15z"/>
<path d="M2240 11230 c0 -18 7 -20 80 -20 73 0 80 2 80 20 0 18 -7 20 -80 20
-73 0 -80 -2 -80 -20z"/>
<path d="M216 11221 c-4 -7 -5 -15 -2 -18 9 -9 19 4 14 18 -4 11 -6 11 -12 0z"/>
<path d="M2213 11160 c0 -25 2 -35 4 -22 2 12 2 32 0 45 -2 12 -4 2 -4 -23z"/>
<path d="M1280 11172 c0 -4 -10 -12 -22 -17 -37 -17 -34 -35 7 -33 40 1 52 12
36 32 -6 7 -8 16 -4 19 3 4 1 7 -5 7 -7 0 -12 -3 -12 -8z"/>
<path d="M3040 11165 c0 -8 7 -15 15 -15 8 0 15 7 15 15 0 8 -7 15 -15 15 -8
0 -15 -7 -15 -15z"/>
<path d="M2800 11160 c0 -5 7 -10 15 -10 8 0 15 5 15 10 0 6 -7 10 -15 10 -8
0 -15 -4 -15 -10z"/>
<path d="M1150 11140 c0 -11 5 -20 10 -20 6 0 10 9 10 20 0 11 -4 20 -10 20
-5 0 -10 -9 -10 -20z"/>
<path d="M2143 11143 c-18 -7 -16 -23 2 -23 8 0 15 7 15 15 0 8 -1 15 -2 14
-2 0 -9 -3 -15 -6z"/>
<path d="M960 11130 c0 -5 5 -10 10 -10 6 0 10 5 10 10 0 6 -4 10 -10 10 -5 0
-10 -4 -10 -10z"/>
<path d="M1513 11123 c-15 -5 -18 -83 -4 -83 5 0 11 20 13 45 2 25 3 45 3 44
0 0 -6 -3 -12 -6z"/>
<path d="M1778 11123 c12 -2 32 -2 45 0 12 2 2 4 -23 4 -25 0 -35 -2 -22 -4z"/>
<path d="M1180 11110 c0 -5 5 -10 10 -10 6 0 10 5 10 10 0 6 -4 10 -10 10 -5
0 -10 -4 -10 -10z"/>
<path d="M2818 11113 c12 -2 32 -2 45 0 12 2 2 4 -23 4 -25 0 -35 -2 -22 -4z"/>
<path d="M940 11090 c0 -5 5 -10 10 -10 6 0 10 5 10 10 0 6 -4 10 -10 10 -5 0
-10 -4 -10 -10z"/>
<path d="M2043 11093 c-62 -6 -53 -19 18 -27 93 -9 99 -8 99 14 0 21 -11 22
-117 13z"/>
<path d="M1840 11076 c0 -18 15 -23 52 -18 34 5 37 17 6 26 -38 10 -58 7 -58
-8z"/>
<path d="M1536 11058 c-15 -21 -22 -78 -10 -78 3 0 22 11 42 25 22 15 52 26
77 26 23 1 30 4 18 6 -15 3 -23 12 -23 24 0 12 -7 19 -20 19 -14 0 -20 -7 -20
-22 l0 -22 -16 22 c-8 12 -19 22 -24 22 -5 0 -16 -10 -24 -22z"/>
<path d="M1848 11033 c6 -2 18 -2 25 0 6 3 1 5 -13 5 -14 0 -19 -2 -12 -5z"/>
<path d="M2826 11005 c-11 -8 -16 -15 -12 -15 5 0 3 -7 -4 -15 -10 -12 -10
-15 4 -15 12 0 16 -10 16 -40 0 -22 5 -40 10 -40 6 0 10 18 10 40 0 29 4 40
15 40 8 0 15 8 15 19 0 15 -5 17 -27 13 -25 -5 -27 -4 -14 11 16 21 12 21 -13
2z"/>
<path d="M280 11000 c-12 -8 -9 -10 13 -10 15 0 27 5 27 10 0 13 -20 13 -40 0z"/>
<path d="M2906 10995 c-11 -8 -15 -15 -9 -15 19 0 43 12 43 21 0 13 -12 11
-34 -6z"/>
<path d="M1680 10990 c0 -11 43 -12 115 0 47 7 45 7 -32 9 -50 0 -83 -3 -83
-9z"/>
<path d="M1520 10950 c0 -5 4 -10 9 -10 6 0 13 5 16 10 3 6 -1 10 -9 10 -9 0
-16 -4 -16 -10z"/>
<path d="M2055 10950 c-3 -5 1 -10 9 -10 9 0 16 5 16 10 0 6 -4 10 -9 10 -6 0
-13 -4 -16 -10z"/>
<path d="M2880 10920 c0 -29 4 -40 15 -40 11 0 15 11 15 40 0 29 -4 40 -15 40
-11 0 -15 -11 -15 -40z"/>
<path d="M1575 10929 c-11 -16 34 -54 48 -40 8 8 7 11 -6 11 -10 0 -17 8 -17
20 0 22 -15 27 -25 9z"/>
<path d="M1862 10913 c2 -10 10 -18 18 -18 8 0 16 8 18 18 2 12 -3 17 -18 17
-15 0 -20 -5 -18 -17z"/>
<path d="M1417 10900 c4 -15 13 -20 37 -19 29 0 30 1 9 11 -13 6 -23 15 -23
20 0 4 -6 8 -14 8 -9 0 -12 -7 -9 -20z"/>
<path d="M1520 10890 c0 -5 7 -10 16 -10 8 0 12 5 9 10 -3 6 -10 10 -16 10 -5
0 -9 -4 -9 -10z"/>
<path d="M1938 10893 c12 -2 32 -2 45 0 12 2 2 4 -23 4 -25 0 -35 -2 -22 -4z"/>
<path d="M320 10840 c0 -5 5 -10 10 -10 6 0 10 5 10 10 0 6 -4 10 -10 10 -5 0
-10 -4 -10 -10z"/>
</g>
</svg>
